
    <svg  xmlns:dc="http://purl.org/dc/elements/1.1/"
          xmlns:cc="http://creativecommons.org/ns#" xmlns:rdf="http://www.w3.org/1999/02/22-rdf-syntax-ns#"
          xmlns:svg="http://www.w3.org/2000/svg" xmlns="http://www.w3.org/2000/svg" viewBox="0 0 21 21"
          height="21.333332" width="170.66667" xml:space="preserve" id="svg2" version="1.1">
          <g transform="matrix(1.3333333,0,0,-1.3333333,0,21.333333)" id="g10">
            <g id="g12">
              <g transform="translate(24.3306,11.0454)" id="g54">
                <path class="brd-logo-objects per-logo-brd " id="path56"
                  style="fill: #2afebd; fill-opacity: 1; fill-rule: nonzero; stroke: none"
                  d="M 0,0 -5.833,1.563 C -5.847,1.567 -5.862,1.567 -5.877,1.57 V 0.933 l 5.626,-1.508 -2.374,-8.854 -3.252,0.872 v -0.642 l 3.183,-0.853 c 0.28,-0.076 0.57,0.092 0.644,0.372 l 2.422,9.036 C 0.447,-0.364 0.28,-0.075 0,0 m -4.843,-6.41 -0.852,2.55 2.012,1.779 0.851,-2.547 z" />
              </g>
              <g transform="translate(5.3501,7.6929)" id="g58">
                <path class="brd-logo-objects per-logo-brd heartbeat-path" id="path60"
                  style="fill: #2afebd; fill-opacity: 1; fill-rule: nonzero; stroke: none"
                  d="m 0,0 c 0.013,0.117 0.005,0.236 -0.027,0.356 -0.139,0.519 -0.677,0.827 -1.202,0.686 -0.524,-0.14 -0.836,-0.675 -0.697,-1.194 0.032,-0.12 0.086,-0.228 0.155,-0.322 -0.501,-0.154 -0.796,-0.676 -0.661,-1.184 0.14,-0.517 0.678,-0.825 1.202,-0.685 0.331,0.09 0.575,0.334 0.678,0.632 0.013,-0.195 0.025,-0.447 0.014,-0.594 -0.035,-0.462 -0.252,-0.634 -0.252,-0.634 l 1.102,0.294 c 0,0 -0.276,0.063 -0.495,0.439 -0.055,0.094 -0.176,0.334 -0.269,0.518 0.238,-0.206 0.572,-0.294 0.901,-0.206 0.187,0.051 0.345,0.152 0.468,0.284 v 1.318 C 0.69,-0.049 0.347,0.072 0,0 M 0.917,4.923 V 4.285 l -5.625,-1.507 2.372,-8.852 3.253,0.869 V -5.846 L -2.267,-6.7 c -0.28,-0.076 -0.569,0.092 -0.644,0.374 l -2.421,9.034 c -0.075,0.281 0.091,0.57 0.372,0.645 l 5.832,1.563 c 0.015,0.003 0.03,0.004 0.045,0.007" />
              </g>
              <path class="brd-logo-objects per-logo-brd" id="path62"
                style="fill: #2afebd; fill-opacity: 1; fill-rule: nonzero; stroke: none"
                d="M 16.917,0.847 H 7.804 v 14.28 h 9.113 z m 0.047,15.075 H 7.756 c -0.443,0 -0.802,-0.36 -0.802,-0.803 V 0.853 c 0,-0.442 0.359,-0.802 0.802,-0.802 h 9.208 c 0.443,0 0.803,0.36 0.803,0.802 v 14.266 c 0,0.443 -0.36,0.803 -0.803,0.803" />
              <g transform="translate(14.1943,6.4395)" id="g64">
                <path class="brd-logo-objects per-logo-brd heartbeat-img" id="path66"
                  style="fill: #2afebd; fill-opacity: 1; fill-rule: nonzero; stroke: none"
                  d="m 0,0 c -1.185,-1.196 -1.817,-2.252 -1.817,-2.252 0,0 -0.65,1.16 -1.818,2.252 -0.867,0.808 -1.623,1.274 -1.623,2.319 0,1.072 0.814,1.939 1.818,1.939 0.696,0 1.301,-0.419 1.606,-1.033 0.305,0.614 0.91,1.033 1.606,1.033 C 0.776,4.258 1.59,3.391 1.59,2.319 1.59,1.286 0.872,0.879 0,0" />
              </g>
            </g>
          </g>
        </svg>