  <svg  xmlns:dc="http://purl.org/dc/elements/1.1/" xmlns:cc="http://creativecommons.org/ns#"
        xmlns:rdf="http://www.w3.org/1999/02/22-rdf-syntax-ns#" xmlns:svg="http://www.w3.org/2000/svg"
        xmlns="http://www.w3.org/2000/svg" viewBox="0 0 170.66667 21.333332" height="21.333332" width="170.66667"
        xml:space="preserve" id="svg2" version="1.1">
        <defs id="defs6">
          <clipPath id="clipPath18" clipPathUnits="userSpaceOnUse">
            <path id="path16" d="M 0,16 H 128 V 0 H 0 Z" />
          </clipPath>
        </defs>
        <g transform="matrix(1.3333333,0,0,-1.3333333,0,21.333333)" id="g10">
          <g id="g12">
            <g clip-path="url(#clipPath18)" id="g14">
              <g transform="translate(37.8447,8.9946)" id="g20">
                <path class="brd-logo-objects" id="path22"
                  style="fill: #2afebd; fill-opacity: 1; fill-rule: nonzero; stroke: none"
                  d="m 0,0 h -0.094 v 1.158 c 0,0.078 -0.035,0.118 -0.106,0.118 h -4.112 c -0.472,0 -0.805,-0.099 -0.998,-0.295 -0.192,-0.198 -0.289,-0.56 -0.289,-1.087 v -2.288 c 0,-0.51 0.095,-0.871 0.283,-1.079 0.189,-0.21 0.524,-0.315 1.004,-0.315 h 6.439 v -2.23 h -6.651 c -0.638,0 -1.182,0.08 -1.63,0.241 -0.449,0.16 -0.812,0.391 -1.087,0.687 -0.276,0.294 -0.477,0.651 -0.603,1.073 -0.126,0.422 -0.189,0.892 -0.189,1.411 v 2.618 c 0,0.519 0.063,0.99 0.189,1.412 0.126,0.42 0.327,0.779 0.603,1.075 0.275,0.294 0.638,0.523 1.087,0.685 0.448,0.161 0.992,0.242 1.63,0.242 h 6.438 c 0.228,0 0.342,-0.118 0.342,-0.355 V 0.839 Z" />
              </g>
              <g transform="translate(43.6294,2.9707)" id="g24">
                <path class="brd-logo-objects" id="path26"
                  style="fill: #2afebd; fill-opacity: 1; fill-rule: nonzero; stroke: none"
                  d="m 0,0 h -2.812 v 0.094 l 4.75,9.073 C 1.993,9.276 2.048,9.352 2.104,9.391 2.159,9.43 2.253,9.45 2.387,9.45 H 5.352 C 5.486,9.45 5.583,9.43 5.642,9.391 5.701,9.352 5.761,9.276 5.825,9.167 L 10.543,0.09 V -0.005 H 3.184 L 2.475,1.861 v 0.236 h 2.41 0.656 c 0.184,0 0.348,-0.002 0.49,-0.004 C 6.172,2.087 6.298,2.081 6.409,2.073 6.519,2.064 6.625,2.057 6.728,2.049 L 6.763,2.133 C 6.716,2.219 6.667,2.305 6.616,2.387 6.563,2.469 6.065,3.425 6.002,3.542 5.938,3.662 5.864,3.803 5.777,3.969 5.69,4.134 5.584,4.342 5.458,4.594 L 4.1,7.312 C 4.068,7.367 4.014,7.395 3.935,7.395 H 3.793 C 3.722,7.395 3.671,7.367 3.639,7.312 Z" />
              </g>
              <g transform="translate(62.5659,9.4434)" id="g28">
                <path class="brd-logo-objects" id="path30"
                  style="fill: #2afebd; fill-opacity: 1; fill-rule: nonzero; stroke: none"
                  d="m 0,0 h -0.094 v 0.945 c 0,0.095 -0.048,0.142 -0.142,0.142 H -4.772 C -4.938,1.087 -5.051,1.051 -5.115,0.981 -5.178,0.909 -5.21,0.807 -5.21,0.674 V 0.048 c 0,-0.165 0.028,-0.272 0.083,-0.319 0.055,-0.048 0.161,-0.083 0.319,-0.106 l 5.34,-0.744 C 0.87,-1.169 1.157,-1.242 1.394,-1.34 1.63,-1.439 1.823,-1.568 1.972,-1.729 2.123,-1.893 2.228,-2.091 2.292,-2.327 2.354,-2.563 2.386,-2.843 2.386,-3.166 v -1.098 c 0,-0.354 -0.043,-0.668 -0.13,-0.937 C 2.169,-5.474 2.027,-5.703 1.831,-5.888 1.634,-6.073 1.374,-6.213 1.051,-6.308 0.728,-6.401 0.331,-6.449 -0.142,-6.449 h -7.654 v 2.233 h 6.863 c 0.204,0 0.34,0.036 0.407,0.112 0.068,0.074 0.101,0.206 0.101,0.396 v 0.236 c 0,0.15 -0.025,0.459 -0.077,0.52 -0.051,0.057 -0.152,0.096 -0.301,0.111 l -5.151,0.651 c -0.346,0.045 -0.643,0.117 -0.892,0.212 -0.248,0.095 -0.45,0.22 -0.609,0.378 -0.157,0.157 -0.271,0.35 -0.341,0.579 -0.072,0.228 -0.107,0.5 -0.107,0.815 v 1.222 c 0,0.622 0.166,1.105 0.496,1.447 0.331,0.343 0.882,0.514 1.654,0.514 H 1.89 c 0.244,0 0.366,-0.126 0.366,-0.378 V 0.828 Z" />
              </g>
              <path class="brd-logo-objects" id="path32"
                style="fill: #2afebd; fill-opacity: 1; fill-rule: nonzero; stroke: none"
                d="m 66.289,12.42 h 2.433 V 2.971 h -2.433 z" />
              <g transform="translate(74.1338,12.4204)" id="g34">
                <path class="brd-logo-objects" id="path36"
                  style="fill: #2afebd; fill-opacity: 1; fill-rule: nonzero; stroke: none"
                  d="m 0,0 c 0.182,0 0.311,-0.028 0.384,-0.083 0.075,-0.055 0.144,-0.142 0.207,-0.26 L 3.9,-7.365 c 0.055,-0.093 0.13,-0.139 0.224,-0.139 h 0.131 c 0.126,0 0.188,0.061 0.188,0.187 v 7.329 h 2.21 V -9.1 c 0,-0.229 -0.111,-0.344 -0.331,-0.344 H 2.825 c -0.166,0 -0.289,0.024 -0.372,0.071 -0.083,0.046 -0.16,0.139 -0.23,0.273 l -3.427,7.009 c -0.047,0.095 -0.122,0.142 -0.226,0.142 h -0.117 c -0.126,0 -0.188,-0.063 -0.188,-0.189 V -9.45 h -2.209 v 9.096 c 0,0.236 0.108,0.354 0.33,0.354 z" />
              </g>
              <g transform="translate(98.1299,10.2705)" id="g38">
                <path class="brd-logo-objects per-letters-brd" id="path40"
                  style="fill: #ffffff; fill-opacity: 1; fill-rule: nonzero; stroke: none"
                  d="M 0,0 C -0.103,0 -0.154,-0.055 -0.154,-0.165 V -2.08 h 4.263 c 0.395,0 0.67,0.079 0.828,0.236 0.158,0.158 0.237,0.414 0.237,0.768 v 0.048 c 0,0.402 -0.079,0.674 -0.237,0.815 C 4.779,-0.071 4.504,0 4.109,0 Z M -0.071,-2.305 H -0.154 V -7.3 h -2.433 v 9.095 c 0,0.237 0.112,0.355 0.342,0.355 H 4.418 C 5,2.15 5.494,2.079 5.9,1.937 6.306,1.795 6.635,1.592 6.887,1.329 7.139,1.065 7.32,0.745 7.436,0.366 7.55,-0.012 7.607,-0.437 7.607,-0.909 v -0.32 C 7.607,-2.213 7.368,-2.953 6.893,-3.445 6.416,-3.938 5.63,-4.184 4.535,-4.184 H 1.346 Z" />
              </g>
              <g transform="translate(109.4072,8.1733)" id="g42">
                <path class="brd-logo-objects per-letters-brd" id="path44"
                  style="fill: #ffffff; fill-opacity: 1; fill-rule: nonzero; stroke: none"
                  d="m 0,0 h -0.083 v -2.782 c 0,-0.11 0.055,-0.164 0.165,-0.164 h 7.253 v -2.233 h -9.51 c -0.228,0 -0.342,0.118 -0.342,0.353 v 8.719 c 0,0.236 0.114,0.354 0.342,0.354 H 7.063 C 7.3,4.247 7.418,4.129 7.418,3.893 V 1.66 L 5.162,0.821 H 5.067 v 1.146 c 0,0.087 -0.039,0.131 -0.118,0.131 H 0.07 C 0.007,2.098 -0.034,2.08 -0.054,2.044 -0.073,2.008 -0.083,1.971 -0.083,1.932 V 0.237 H 3.933 V -1.51 H 1.139 Z" />
              </g>
              <g transform="translate(120.8535,10.2705)" id="g46">
                <path class="brd-logo-objects per-letters-brd" id="path48"
                  style="fill: #ffffff; fill-opacity: 1; fill-rule: nonzero; stroke: none"
                  d="M 0,0 C -0.11,0 -0.165,-0.067 -0.165,-0.201 V -2.08 h 3.976 c 0.322,0 0.551,0.063 0.69,0.19 0.138,0.125 0.206,0.366 0.206,0.721 v 0.294 c 0,0.332 -0.068,0.561 -0.206,0.686 C 4.362,-0.063 4.133,0 3.811,0 Z M -0.165,-2.303 V -7.3 H -2.6 v 9.095 c 0,0.237 0.112,0.355 0.331,0.355 H 4.246 C 4.782,2.15 5.235,2.087 5.605,1.961 5.975,1.835 6.274,1.652 6.503,1.411 6.731,1.171 6.896,0.882 7,0.543 7.102,0.205 7.152,-0.177 7.152,-0.603 V -1.216 C 7.152,-1.634 7.102,-2.008 7,-2.339 6.896,-2.67 6.733,-2.952 6.509,-3.184 6.284,-3.418 5.996,-3.596 5.641,-3.722 5.287,-3.848 5.06,-3.909 4.548,-3.909 H 4.301 3.986 c -0.09,0 0.028,0.004 -0.057,0.012 L 4.16,-3.981 C 4.264,-4.075 4.366,-4.18 4.467,-4.293 4.57,-4.409 4.668,-4.525 4.763,-4.642 L 6.826,-7.2 V -7.296 H 3.852 l -3.728,4.993 z" />
              </g>
              <g transform="translate(89.5811,8.9214)" id="g50">
                <path class="brd-logo-objects" id="path52"
                  style="fill: #2afebd; fill-opacity: 1; fill-rule: nonzero; stroke: none"
                  d="m 0,0 c -0.134,0.125 -0.273,0.253 -0.418,0.399 -0.96,0.964 -1.486,1.83 -1.491,1.839 -0.042,0.071 -0.119,0.113 -0.201,0.113 H -2.113 C -2.197,2.35 -2.274,2.304 -2.315,2.231 -2.319,2.222 -2.854,1.276 -3.791,0.398 -3.908,0.288 -4.023,0.186 -4.133,0.088 c -0.585,-0.521 -1.09,-0.971 -1.089,-1.809 0.002,-1.022 0.79,-1.855 1.757,-1.855 0.315,0.002 0.615,0.09 0.879,0.248 -0.018,-0.068 -0.035,-0.128 -0.051,-0.176 -0.197,-0.61 -0.498,-0.772 -0.511,-0.778 -0.096,-0.05 -0.147,-0.16 -0.123,-0.265 0.026,-0.105 0.119,-0.181 0.227,-0.181 l 1.769,0.005 c 0.105,0 0.199,0.071 0.226,0.176 0.028,0.101 -0.018,0.21 -0.111,0.261 -0.01,0.006 -0.307,0.195 -0.454,0.776 -0.013,0.048 -0.029,0.116 -0.046,0.196 0.265,-0.166 0.571,-0.256 0.889,-0.256 0.974,0.002 1.759,0.838 1.757,1.863 C 0.986,-0.915 0.551,-0.511 0,0 M 3.324,-2.176 C 3.324,-2.75 3.255,-3.27 3.115,-3.736 2.977,-4.204 2.754,-4.599 2.45,-4.925 2.144,-5.251 1.746,-5.505 1.253,-5.683 0.762,-5.861 0.164,-5.951 -0.542,-5.951 H -3.68 c -0.705,0 -1.306,0.09 -1.802,0.268 -0.497,0.178 -0.898,0.432 -1.203,0.758 -0.304,0.326 -0.527,0.721 -0.666,1.189 -0.138,0.466 -0.208,0.986 -0.208,1.56 v 1.96 c 0,0.575 0.07,1.095 0.208,1.561 0.139,0.466 0.362,0.862 0.666,1.189 0.305,0.326 0.706,0.579 1.203,0.757 0.496,0.179 1.097,0.269 1.802,0.269 h 3.138 C 0.164,3.56 0.762,3.47 1.253,3.291 1.746,3.113 2.144,2.86 2.45,2.534 2.754,2.207 2.977,1.811 3.115,1.345 3.255,0.879 3.324,0.359 3.324,-0.216 Z" />
              </g>
            </g>
          </g>
        </g>
      </svg>